<?xml version="1.0" encoding="UTF-8" standalone="no"?>
<!-- Created with Inkscape (http://www.inkscape.org/) -->

<svg
   width="793.70081"
   height="1122.5197"
   viewBox="0 0 210 296.99999"
   version="1.1"
   id="svg1"
   inkscape:version="1.4.2 (f4327f4, 2025-05-13)"
   sodipodi:docname="logo.svg"
   xmlns:inkscape="http://www.inkscape.org/namespaces/inkscape"
   xmlns:sodipodi="http://sodipodi.sourceforge.net/DTD/sodipodi-0.dtd"
   xmlns:xlink="http://www.w3.org/1999/xlink"
   xmlns="http://www.w3.org/2000/svg"
   xmlns:svg="http://www.w3.org/2000/svg">
  <sodipodi:namedview
     id="namedview1"
     pagecolor="#ffffff"
     bordercolor="#000000"
     borderopacity="0.25"
     inkscape:showpageshadow="2"
     inkscape:pageopacity="0.0"
     inkscape:pagecheckerboard="0"
     inkscape:deskcolor="#d1d1d1"
     inkscape:document-units="mm"
     showborder="false"
     inkscape:zoom="0.70710678"
     inkscape:cx="457.49809"
     inkscape:cy="546.59354"
     inkscape:window-width="1920"
     inkscape:window-height="1111"
     inkscape:window-x="-9"
     inkscape:window-y="-9"
     inkscape:window-maximized="1"
     inkscape:current-layer="layer1" />
  <defs
     id="defs1">
    <linearGradient
       id="linearGradient5"
       inkscape:collect="always">
      <stop
         style="stop-color:#00ffff;stop-opacity:0.98823499;"
         offset="0"
         id="stop5" />
      <stop
         style="stop-color:#800080;stop-opacity:1"
         offset="1"
         id="stop6" />
    </linearGradient>
    <linearGradient
       inkscape:collect="always"
       xlink:href="#linearGradient5"
       id="linearGradient6"
       x1="86.651042"
       y1="107.36348"
       x2="156.89792"
       y2="107.36348"
       gradientUnits="userSpaceOnUse"
       gradientTransform="translate(-11.377087,19.958474)" />
    <linearGradient
       inkscape:collect="always"
       xlink:href="#linearGradient5"
       id="linearGradient8"
       x1="137.45103"
       y1="114.43229"
       x2="77.522919"
       y2="115.62292"
       gradientUnits="userSpaceOnUse"
       gradientTransform="translate(-11.377087,19.958474)" />
  </defs>
  <g
     inkscape:label="Layer 1"
     inkscape:groupmode="layer"
     id="layer1">
    <path
       id="path1"
       style="opacity:1;fill:url(#linearGradient8);fill-opacity:0.988235;stroke-width:0.305288"
       d="m 105.83333,95.893889 a 39.687497,39.687497 0 0 0 -39.687497,39.687491 39.687497,39.687497 0 0 0 39.687497,39.6875 39.687497,39.687497 0 0 0 39.68751,-39.6875 39.687497,39.687497 0 0 0 -39.68751,-39.687491 z m 0,18.256251 a 20.240625,20.240625 0 0 1 20.24062,20.24061 20.240625,20.240625 0 0 1 -20.24062,20.24063 20.240625,20.240625 0 0 1 -20.240627,-20.24063 20.240625,20.240625 0 0 1 20.240627,-20.24061 z" />
    <path
       id="path3"
       style="opacity:0.493671;fill:url(#linearGradient6);fill-opacity:0.988235;stroke-width:0.235072"
       d="m 145.25935,79.375 c -10.62861,0 -19.1854,8.556787 -19.1854,19.185393 v 35.830357 a 20.240625,20.240625 0 0 1 -20.24062,20.24063 20.240625,20.240625 0 0 1 -20.240627,-20.24063 20.240625,20.240625 0 0 1 17.598407,-20.0675 30.559368,30.559368 0 0 0 -27.917157,30.38625 30.559368,30.559368 0 0 0 30.140277,30.55628 v 0.001 a 39.687497,39.687497 0 0 0 0.4191,0.002 39.687497,39.687497 0 0 0 0.008,0 39.687497,39.687497 0 0 0 39.67925,-39.6875 39.687497,39.687497 0 0 0 -0.014,-1.04748 l -0.24753,-0.14315 z" />
  </g>
</svg>
